<svg width="100" height="100" viewBox="0 0 100 100" fill="none" xmlns="http://www.w3.org/2000/svg">
<g clip-path="url(#clip0_1_100)">
<path d="M74.3622 88.5493C75.9833 93.0886 79.814 92.5507 83.7301 90.8137C89.2696 88.3559 96.6375 77.1367 97.368 71.8429C98.0386 66.9844 96.3016 63.179 92.519 62.6845" fill="white"/>
<path d="M74.3622 88.5493C75.9833 93.0886 79.814 92.5507 83.7301 90.8137C89.2696 88.3559 96.6375 77.1367 97.368 71.8429C98.0386 66.9844 96.3016 63.179 92.519 62.6845" stroke="black" stroke-width="3" stroke-linecap="round" stroke-linejoin="round"/>
<path d="M92.7208 22.8907C98.6209 24.1707 95.3476 33.5156 90.3793 42.6409C88.4501 46.1843 93.9076 60.6511 90.5446 69.8648C88.3569 75.8592 80.1385 86.8055 74.3486 88.3141C64.4348 90.897 55.7245 89.2065 47.0172 84.5744C43.9306 82.9325 40.779 80.5962 38.4132 78.4272C30.6442 71.3045 4.90929 62.4713 3.2675 60.2152C-1.29524 53.9473 7.57762 49.9738 12.4575 51.6023C14.8211 52.3911 32.8428 56.1393 30.4415 54.1284C24.5427 49.1884 16.8475 43.9525 9.29845 39.4233C-1.99806 32.6458 12.0247 20.5701 22.5371 27.0247C27.4618 30.0484 31.9289 31.9941 42.7608 38.9999C38.727 33.0072 33.2575 23.9992 28.6805 18.7534C21.1333 10.103 36.6154 1.77272 45.621 12.5432C51.7537 19.878 61.3581 34.3025 74.5306 43.9438C74.4171 35.696 74.9239 19.029 92.72 22.8894L92.7208 22.8907Z" fill="white" stroke="black" stroke-width="3" stroke-linecap="round" stroke-linejoin="round"/>
<path d="M43.4916 37.6514C48.8169 44.5968 49.9616 49.3799 50.8027 51.4964C47.5823 47.0506 46.8838 45.8374 43.0898 41.3543C42.4466 40.5943 41.571 39.8142 40.3588 39.0394L43.4916 37.6514Z" fill="black"/>
<path d="M31.3385 53.1004C35.2704 56.3978 39.2204 61.3177 41 65.2354C38.8803 63.4034 35.265 60.2235 32.0976 57.376C31.2385 56.6037 30.2826 56.124 28.6422 56.0119C29.7405 55.2351 30.4986 54.1322 31.3385 53.1004Z" fill="black"/>
<path d="M74.5548 80.1999C67.7924 78.2107 66.3631 76.9992 63.2677 75.5445" stroke="black" stroke-width="3" stroke-linecap="round" stroke-linejoin="round"/>
<path d="M78.8919 75.5974C72.1839 71.6233 69.3332 69.0802 65.1061 66.0263" stroke="black" stroke-width="3" stroke-linecap="round" stroke-linejoin="round"/>
<path d="M83.9023 69.9512C79.6942 66.6235 78.0185 64.6627 75.5581 62.2784" stroke="black" stroke-width="3" stroke-linecap="round" stroke-linejoin="round"/>
</g>
<defs>
<clipPath id="clip0_1_100">
<rect width="100" height="100" fill="white" transform="matrix(-1 0 0 1 100 0)"/>
</clipPath>
</defs>
</svg>
