<svg width="100" height="100" viewBox="0 0 100 100" fill="none" xmlns="http://www.w3.org/2000/svg">
<g clip-path="url(#clip0_1_102)">
<path d="M25.6378 88.5493C24.0167 93.0886 20.186 92.5507 16.2699 90.8137C10.7304 88.3559 3.36254 77.1367 2.63196 71.8429C1.9614 66.9844 3.69838 63.179 7.48102 62.6845" fill="white"/>
<path d="M25.6378 88.5493C24.0167 93.0886 20.186 92.5507 16.2699 90.8137C10.7304 88.3559 3.36254 77.1367 2.63196 71.8429C1.9614 66.9844 3.69838 63.179 7.48102 62.6845" stroke="black" stroke-width="3" stroke-linecap="round" stroke-linejoin="round"/>
<path d="M7.27922 22.8907C1.37916 24.1707 4.65237 33.5156 9.62073 42.6409C11.5499 46.1843 6.09244 60.6511 9.45539 69.8648C11.6431 75.8592 19.8615 86.8055 25.6514 88.3141C35.5653 90.897 44.2755 89.2065 52.9829 84.5744C56.0694 82.9325 59.221 80.5962 61.5869 78.4272C69.3558 71.3045 95.0907 62.4713 96.7325 60.2152C101.295 53.9473 92.4224 49.9738 87.5425 51.6023C85.1789 52.3911 67.1572 56.1393 69.5585 54.1284C75.4573 49.1884 83.1525 43.9525 90.7016 39.4233C101.998 32.6458 87.9753 20.5701 77.463 27.0247C72.5382 30.0484 68.0711 31.9941 57.2392 38.9999C61.273 33.0072 66.7425 23.9992 71.3196 18.7534C78.8667 10.103 63.3847 1.77272 54.3791 12.5432C48.2463 19.878 38.6419 34.3025 25.4694 43.9438C25.583 35.696 25.0761 19.029 7.28006 22.8894L7.27922 22.8907Z" fill="white" stroke="black" stroke-width="3" stroke-linecap="round" stroke-linejoin="round"/>
<path d="M56.5084 37.6514C51.1831 44.5968 50.0384 49.3799 49.1973 51.4964C52.4177 47.0506 53.1162 45.8374 56.9102 41.3543C57.5534 40.5943 58.429 39.8142 59.6412 39.0394L56.5084 37.6514Z" fill="black"/>
<path d="M68.6615 53.1004C64.7296 56.3978 60.7797 61.3177 59 65.2354C61.1197 63.4034 64.735 60.2235 67.9024 57.376C68.7615 56.6037 69.7174 56.124 71.3578 56.0119C70.2595 55.2351 69.5014 54.1322 68.6615 53.1004Z" fill="black"/>
<path d="M25.4452 80.1999C32.2076 78.2107 33.6369 76.9992 36.7324 75.5445" stroke="black" stroke-width="3" stroke-linecap="round" stroke-linejoin="round"/>
<path d="M21.1081 75.5974C27.8161 71.6233 30.6668 69.0802 34.8939 66.0263" stroke="black" stroke-width="3" stroke-linecap="round" stroke-linejoin="round"/>
<path d="M16.0977 69.9512C20.3059 66.6235 21.9815 64.6627 24.4419 62.2784" stroke="black" stroke-width="3" stroke-linecap="round" stroke-linejoin="round"/>
</g>
<defs>
<clipPath id="clip0_1_102">
<rect width="100" height="100" fill="white"/>
</clipPath>
</defs>
</svg>
