<svg width="100" height="100" viewBox="0 0 100 100" fill="none" xmlns="http://www.w3.org/2000/svg">
<g clip-path="url(#clip0_1_103)">
<path d="M86.5126 64.345C92.404 66.7618 95.2397 62.5075 96.989 57.1058C99.4614 49.4642 94.8973 32.2719 90.3309 26.8681C86.1072 21.9136 80.8786 20.2538 76.9885 23.5596" fill="white"/>
<path d="M86.5126 64.345C92.404 66.7618 95.2397 62.5075 96.989 57.1058C99.4614 49.4642 94.8973 32.2719 90.3309 26.8681C86.1072 21.9136 80.8786 20.2538 76.9885 23.5596" stroke="black" stroke-width="3" stroke-linecap="round" stroke-linejoin="round"/>
<path d="M37.4043 10.7725C51.0921 7.80212 74.8112 17.3023 82.3791 31.8499C86.2035 39.3756 89.8617 57.1068 86.2121 64.1596C80.0297 76.2292 70.6144 83.3342 58.3457 87.8387C53.9999 89.4295 48.9338 90.4682 44.6711 90.8908C27.2743 92.7592 13.5655 89.3715 13.6781 77.275C-1.03683 75.9482 -1.15261 53.5765 9.6331 51.7379C-4.68139 42.6092 4.40246 24.5298 20.4388 28.789C21.9864 26.009 23.1941 13.8609 37.4043 10.7725Z" fill="white" stroke="black" stroke-width="3" stroke-linecap="round" stroke-linejoin="round"/>
<path d="M10.437 53.4863C21.9086 55.1899 26.2293 53.0763 29.2597 52.7047C22.0098 51.8208 20.1496 51.7899 12.5186 50.2782C11.2207 50.0196 9.88519 49.6205 8.30195 48.5034L8.37323 54.0113C8.11465 54.0908 9.61148 53.49 10.437 53.4863Z" fill="black"/>
<path d="M12.5438 78.9195C19.3449 79.1915 27.7375 78.7549 32.9681 76.4989C29.2261 76.4043 19.568 75.517 13.9308 75.4875C13.9308 75.4759 13.9431 75.4968 12.5438 78.9195Z" fill="black"/>
<path d="M78.4404 56.773C70.4787 61.6923 68.0075 62.0348 63.8698 63.7988" stroke="black" stroke-width="3" stroke-linecap="round" stroke-linejoin="round"/>
<path d="M77.7315 48.4223C67.8558 51.535 62.8046 52.104 56.093 53.5702" stroke="black" stroke-width="3" stroke-linecap="round" stroke-linejoin="round"/>
<path d="M76.5873 38.4842C69.5648 39.6998 66.1243 39.6242 61.663 39.9343" stroke="black" stroke-width="3" stroke-linecap="round" stroke-linejoin="round"/>
<path d="M19.2637 26.9206C34.5719 27.9747 39.6578 22.5634 46.6559 18.3852C39.6423 24.1528 37.9912 30.7288 20.2777 30.5958L19.2637 26.9206Z" fill="black"/>
</g>
<defs>
<clipPath id="clip0_1_103">
<rect width="100" height="100" fill="white" transform="matrix(-1 0 0 1 100 0)"/>
</clipPath>
</defs>
</svg>
