<svg width="100" height="100" viewBox="0 0 100 100" fill="none" xmlns="http://www.w3.org/2000/svg">
<g clip-path="url(#clip0_1_104)">
<path d="M13.4874 64.345C7.59604 66.7618 4.76033 62.5075 3.01102 57.1058C0.538594 49.4642 5.10268 32.2719 9.66912 26.8681C13.8928 21.9136 19.1214 20.2538 23.0115 23.5596" fill="white"/>
<path d="M13.4874 64.345C7.59604 66.7618 4.76033 62.5075 3.01102 57.1058C0.538594 49.4642 5.10268 32.2719 9.66912 26.8681C13.8928 21.9136 19.1214 20.2538 23.0115 23.5596" stroke="black" stroke-width="3" stroke-linecap="round" stroke-linejoin="round"/>
<path d="M62.5957 10.7725C48.9079 7.80212 25.1888 17.3023 17.6209 31.8499C13.7965 39.3756 10.1383 57.1068 13.7879 64.1596C19.9703 76.2292 29.3856 83.3342 41.6543 87.8387C46.0001 89.4295 51.0662 90.4682 55.3289 90.8908C72.7257 92.7592 86.4345 89.3715 86.3219 77.275C101.037 75.9482 101.153 53.5765 90.3669 51.7379C104.681 42.6092 95.5975 24.5298 79.5612 28.789C78.0136 26.009 76.8059 13.8609 62.5957 10.7725Z" fill="white" stroke="black" stroke-width="3" stroke-linecap="round" stroke-linejoin="round"/>
<path d="M89.563 53.4863C78.0914 55.1899 73.7707 53.0763 70.7403 52.7047C77.9902 51.8208 79.8504 51.7899 87.4814 50.2782C88.7793 50.0196 90.1148 49.6205 91.698 48.5034L91.6268 54.0113C91.8853 54.0908 90.3885 53.49 89.563 53.4863Z" fill="black"/>
<path d="M87.4562 78.9195C80.6551 79.1915 72.2625 78.7549 67.0319 76.4989C70.7739 76.4043 80.432 75.517 86.0692 75.4875C86.0692 75.4759 86.0569 75.4968 87.4562 78.9195Z" fill="black"/>
<path d="M21.5596 56.773C29.5213 61.6923 31.9925 62.0348 36.1302 63.7988" stroke="black" stroke-width="3" stroke-linecap="round" stroke-linejoin="round"/>
<path d="M22.2685 48.4223C32.1442 51.535 37.1954 52.104 43.907 53.5702" stroke="black" stroke-width="3" stroke-linecap="round" stroke-linejoin="round"/>
<path d="M23.4127 38.4842C30.4352 39.6998 33.8757 39.6242 38.337 39.9343" stroke="black" stroke-width="3" stroke-linecap="round" stroke-linejoin="round"/>
<path d="M80.7363 26.9206C65.4281 27.9747 60.3422 22.5634 53.3441 18.3852C60.3577 24.1528 62.0088 30.7288 79.7223 30.5958L80.7363 26.9206Z" fill="black"/>
</g>
<defs>
<clipPath id="clip0_1_104">
<rect width="100" height="100" fill="white"/>
</clipPath>
</defs>
</svg>
