<svg width="100" height="100" viewBox="0 0 100 100" fill="none" xmlns="http://www.w3.org/2000/svg">
<g clip-path="url(#clip0_1_106)">
<path d="M8.70255 49.1818C4.06874 49.9289 2.7465 46.3999 2.39638 42.2295C1.90271 36.3301 8.06066 24.755 12.2442 21.6418C16.1063 18.7936 20.1375 18.4787 22.3756 21.5036" fill="white"/>
<path d="M8.70255 49.1818C4.06874 49.9289 2.7465 46.3999 2.39638 42.2295C1.90271 36.3301 8.06066 24.755 12.2442 21.6418C16.1063 18.7936 20.1375 18.4787 22.3756 21.5036" stroke="black" stroke-width="3" stroke-linecap="round" stroke-linejoin="round"/>
<path d="M52.9317 18.9609C43.6049 14.5344 24.9874 17.3773 17.1167 26.5505C13.1101 31.3112 7.51207 43.425 8.94936 49.0991C11.3637 58.7987 16.9307 65.4767 24.9817 70.7666C27.8344 72.6369 31.2966 74.2317 34.2854 75.2496C45.2788 78.8357 54.919 73.1768 58.8138 70.6719C65.8166 73.4098 73.9137 77.5471 81.3373 81.8912C92.4413 88.3891 96.2097 70.7103 85.7454 64.7297C80.8466 61.9302 77.0811 59.0142 65.998 53.0201C73.027 53.6665 83.3108 54.1264 89.9501 55.5859C100.904 57.9955 100.777 40.8216 87.3227 38.1578C78.1606 36.3444 70.8346 36.4235 62.0889 34.7366C61.4441 32.4818 62.6136 23.5598 52.9317 18.9609Z" fill="white" stroke="black" stroke-width="3" stroke-linecap="round" stroke-linejoin="round"/>
<path d="M66.793 51.7542C58.3447 50.4501 53.7123 51.7137 51.4769 51.9748C56.8168 52.6569 58.1878 52.6875 63.8059 53.834C64.7615 54.0301 65.839 54.4137 67.0735 55.0894L66.793 51.7542Z" fill="black"/>
<path d="M59.2578 69.4141C54.584 67.59 48.5181 66.5149 44.3309 66.8298C49.4336 68.7017 53.4641 70.1746 58.3664 71.8444C58.3716 71.8316 58.7631 70.6154 59.2554 69.4129L59.2578 69.4141Z" fill="black"/>
<path d="M15.7659 45.0999C20.656 49.9655 22.3723 50.6256 25.0465 52.5853" stroke="black" stroke-width="3" stroke-linecap="round" stroke-linejoin="round"/>
<path d="M17.6745 39.2249C24.2413 43.1146 27.7715 44.3697 32.3432 46.5472" stroke="black" stroke-width="3" stroke-linecap="round" stroke-linejoin="round"/>
<path d="M20.1618 32.2833C24.9985 34.3331 27.4808 34.8555 30.6309 35.826" stroke="black" stroke-width="3" stroke-linecap="round" stroke-linejoin="round"/>
<path d="M63.2455 33.5925C52.081 31.783 49.3376 27.0463 45.015 22.8743C49.0823 28.1898 49.165 33.1866 61.9017 36.0605L63.2455 33.5925Z" fill="black"/>
</g>
<defs>
<clipPath id="clip0_1_106">
<rect width="100" height="100" fill="white"/>
</clipPath>
</defs>
</svg>
