<svg width="100" height="100" viewBox="0 0 100 100" fill="none" xmlns="http://www.w3.org/2000/svg">
<g clip-path="url(#clip0_1_105)">
<path d="M91.2974 49.1818C95.9312 49.9289 97.2535 46.3999 97.6036 42.2295C98.0973 36.3301 91.9393 24.755 87.7558 21.6418C83.8937 18.7936 79.8625 18.4787 77.6244 21.5036" fill="white"/>
<path d="M91.2974 49.1818C95.9312 49.9289 97.2535 46.3999 97.6036 42.2295C98.0973 36.3301 91.9393 24.755 87.7558 21.6418C83.8937 18.7936 79.8625 18.4787 77.6244 21.5036" stroke="black" stroke-width="3" stroke-linecap="round" stroke-linejoin="round"/>
<path d="M47.0683 18.9609C56.3951 14.5344 75.0126 17.3773 82.8833 26.5505C86.8899 31.3112 92.4879 43.425 91.0506 49.0991C88.6363 58.7987 83.0693 65.4767 75.0183 70.7666C72.1656 72.6369 68.7034 74.2317 65.7146 75.2496C54.7212 78.8357 45.081 73.1768 41.1862 70.6719C34.1834 73.4098 26.0863 77.5471 18.6627 81.8912C7.55873 88.3891 3.7903 70.7103 14.2546 64.7297C19.1534 61.9302 22.9189 59.0142 34.002 53.0201C26.973 53.6665 16.6892 54.1264 10.0499 55.5859C-0.904448 57.9955 -0.776755 40.8216 12.6773 38.1578C21.8394 36.3444 29.1654 36.4235 37.9111 34.7366C38.5559 32.4818 37.3864 23.5598 47.0683 18.9609Z" fill="white" stroke="black" stroke-width="3" stroke-linecap="round" stroke-linejoin="round"/>
<path d="M33.207 51.7542C41.6553 50.4501 46.2877 51.7137 48.5231 51.9748C43.1832 52.6569 41.8122 52.6875 36.1941 53.834C35.2385 54.0301 34.161 54.4137 32.9264 55.0894L33.207 51.7542Z" fill="black"/>
<path d="M40.7422 69.4141C45.416 67.59 51.4819 66.5149 55.6691 66.8298C50.5664 68.7017 46.5359 70.1746 41.6336 71.8444C41.6284 71.8316 41.2369 70.6154 40.7446 69.4129L40.7422 69.4141Z" fill="black"/>
<path d="M84.2341 45.0999C79.344 49.9655 77.6277 50.6256 74.9535 52.5853" stroke="black" stroke-width="3" stroke-linecap="round" stroke-linejoin="round"/>
<path d="M82.3254 39.2249C75.7587 43.1146 72.2284 44.3697 67.6568 46.5472" stroke="black" stroke-width="3" stroke-linecap="round" stroke-linejoin="round"/>
<path d="M79.8382 32.2833C75.0015 34.3331 72.5192 34.8555 69.3691 35.826" stroke="black" stroke-width="3" stroke-linecap="round" stroke-linejoin="round"/>
<path d="M36.7545 33.5925C47.919 31.783 50.6624 27.0463 54.9851 22.8743C50.9177 28.1898 50.835 33.1866 38.0984 36.0605L36.7545 33.5925Z" fill="black"/>
</g>
<defs>
<clipPath id="clip0_1_105">
<rect width="100" height="100" fill="white" transform="matrix(-1 0 0 1 100 0)"/>
</clipPath>
</defs>
</svg>
